<svg version="1.2" xmlns="http://www.w3.org/2000/svg" viewBox="0 0 382 484" width="382" height="484">
	<style>
		.s0 { opacity: .99;fill: #0d9344 } 
		@media (prefers-color-scheme: dark) {
		.s0 { opacity: .99;fill: #f9cf12 }
		}
	</style>
	<path id="Path 0" class="s0" d="m174.5 5.1c-2.8 0.4-8.2 1.8-12 3-3.8 1.1-10.8 4.1-15.5 6.5-4.7 2.4-11.5 6.8-15.3 9.9-3.7 3-9.5 9-12.8 13.3-3.4 4.2-8.1 11.7-10.5 16.7-2.4 5-5.3 12.6-6.5 17-1.8 6.4-2.2 10.7-2.2 22 0 11.2 0.4 15.6 2.2 22 1.1 4.4 4 11.8 6.2 16.5 2.3 4.7 5.5 10.5 7.2 13 1.8 2.5 5.9 7.4 9.2 10.9 3.3 3.5 10.1 9 15 12.3 4.9 3.2 12.4 7.2 16.5 8.8 4.1 1.5 11.3 3.6 16 4.5 6.5 1.4 11.5 1.6 21 1.3 9.8-0.5 14.3-1.1 21-3.3 4.7-1.5 12.3-4.7 17-7.2 4.7-2.4 11.4-6.8 14.9-9.6 3.5-2.9 9.2-8.8 12.7-13.2 3.6-4.4 8.2-11.6 10.4-16 2.1-4.4 4.9-11.4 6-15.5 1.5-5.1 2.4-11.6 2.7-20.5 0.4-9.9 0.2-15-1.1-21.5-1-4.7-3.3-12.1-5.2-16.5-1.9-4.4-4.9-10.4-6.7-13.4-1.7-3-6.8-9.2-11.2-13.9-4.4-4.6-11.1-10.5-15-13.1-3.9-2.6-10.6-6.2-15-8-4.4-1.9-12.1-4.2-17-5.2-5.3-1.1-12.7-1.8-18-1.8-4.9 0.1-11.2 0.5-14 1zm-135.5 242.1v34.3c10.5 1.9 16 3.7 19 5.1 3 1.4 7.3 4 9.5 5.8 2.2 1.8 5.4 5.5 7.2 8.2 1.8 2.7 4 7.8 4.9 11.4 1.2 4.8 1.5 8.4 1 14-0.4 4.1-1.4 10.3-2.2 13.7-0.7 3.5-2.5 8.4-3.8 11-1.3 2.7-4 6.3-6 8-2 1.8-5.3 4.1-7.3 5.2-2.1 1-6 2.5-8.8 3.4-2.7 0.9-6.9 2.1-9.2 2.6l-4.3 1.1v67c75.6 0 81.3 0.2 91.8 2 6.4 1.1 16.9 3.4 23.2 5.1 6.3 1.7 14.8 4.6 18.8 6.5 4.6 2.2 8.8 5.1 11.7 8.1l4.5 4.8c7.1-7.9 10.9-10.5 16-12.8 4.1-1.9 10.9-4.5 15-5.7 4.1-1.2 12.9-3.4 19.5-4.8 11.6-2.4 13.3-2.5 55.8-2.9l43.7-0.3v-67c-6.6-1.6-10.7-2.8-13.5-3.7-2.7-0.9-6.7-2.4-8.7-3.4-2.1-1.1-5.5-3.4-7.5-5.3-2.1-1.8-5-6-6.5-9.2-1.5-3.2-3.4-10.2-4.4-15.4-1.1-6.3-1.4-11.9-1-16.5 0.3-4 1.6-9.1 2.9-12 1.3-2.8 4.3-7.2 6.7-9.8 2.6-2.9 7.2-6.2 11-8.1 3.8-1.9 9.5-3.8 13.8-4.4l7.2-1.2v-69c-103.3 0.5-110.2 0.8-115.5 2.3-3.3 1-9.1 3.2-13 5-4.7 2.2-9.4 5.6-14.3 10.3l-7.3 6.9c-10.4-10.1-16.1-14.4-19.4-16.2-3.3-1.7-9.4-4.2-13.5-5.4-7.4-2.3-8.6-2.3-62.2-2.7l-54.7-0.3zm-9.3 44.8c-2 0.6-5 1.6-6.5 2.4-1.5 0.8-3.7 2.5-4.9 3.8-1.2 1.2-3.3 4.6-4.5 7.3-2.1 4.6-2.3 6.4-2.3 22.5 0 12.7 0.4 18.6 1.4 21.5 0.8 2.2 2.9 5.6 4.6 7.5 2.1 2.3 4.9 4 8.1 4.9 3.1 0.9 6.9 1.2 10.4 0.8 3-0.3 9.1-1.7 13.5-3.1 4.4-1.5 9.3-3.5 11-4.7 1.6-1.1 4.2-3.7 5.6-5.7 1.5-2.1 3.5-6.4 4.5-9.7 1.2-4 1.8-9.3 1.8-16 0.1-9.3-0.2-10.4-2.9-15.4-1.7-2.9-4.6-6.7-6.5-8.4-2-1.7-6-4.2-9-5.6-4-1.8-7.6-2.5-13-2.7-4.2-0.2-9.2 0.1-11.3 0.6zm299.8 0c-1.7 0.4-4.7 1.4-6.8 2.4-2 0.9-5.9 3.6-8.5 6-2.7 2.5-5.8 6.6-7.2 9.7-1.9 4.2-2.4 7.1-2.4 12.9 0 4.1 0.9 10.9 1.9 15 1.2 4.7 3 9 5 11.5 1.6 2.2 5.3 5.2 8 6.7 2.7 1.5 8.6 3.6 13 4.8 4.4 1.1 10.2 2 13 2 2.7 0 6.8-0.9 9-1.8 2.2-1 5-3.2 6.3-4.8 1.2-1.6 2.9-5.1 3.7-7.9 1-3.4 1.5-9.8 1.5-20 0-10.9-0.5-16.5-1.6-20.5-1.2-3.8-2.9-6.8-5.8-9.6-2.9-2.9-5.8-4.7-9.6-5.8-3.1-0.9-8-1.6-11-1.5-3.1 0.1-6.9 0.4-8.5 0.9z"/>
</svg>