<svg version="1.2" xmlns="http://www.w3.org/2000/svg" viewBox="0 0 1055 1055" width="1055" height="1055">
	<title>c loading fci svg-svg</title>
	<style>
		.s0 { fill: #0e9343 } 
		.s1 { fill: #4c4c4a } 
	</style>
	<g id="Capa 1 copy 4">
		<path id="Path 1 copy" class="s0" d="m208.5 145.4c-2.2 0.7-6.5 2.5-9.5 4.1-3 1.5-8 4.7-11 7-3 2.3-7.7 6.6-10.3 9.6-2.6 3-6 7.9-7.5 10.9-2.4 4.9-2.7 6.6-2.7 16.1 0 10.4 0.1 10.7 4 18.4 2.9 5.7 5.7 9.3 10 13.2 3.3 3 8.9 7.1 12.5 9.2 3.6 2.1 8.8 5.1 11.5 6.6 4.1 2.3 6.2 2.8 12 2.8 4.5 0 8.4-0.6 11-1.7 2.2-0.9 6.9-3.7 10.5-6 3.6-2.4 8.8-6.8 11.5-9.8 2.8-3 6.2-7.2 7.6-9.4 1.4-2.1 4.2-6.5 6.2-9.7 3.6-5.6 3.8-5.7 9-6.2 2.8-0.2 28.4-0.7 56.7-0.9 31.2-0.3 52.9-0.2 55 0.4 2.6 0.7 4.3 2.2 6.6 5.7 1.7 2.7 4.7 8 6.6 11.8 1.9 3.8 4.9 9.7 6.8 13 1.8 3.3 3.9 6.7 4.6 7.5 0.7 0.8 1.4 1.8 1.4 2.2 0 0.5 0.6 1.4 1.2 2.1 0.7 0.8 2.2 1.8 3.3 2.4 1.1 0.6 4.5 1.4 7.5 1.7 3 0.3 53 0.2 111-0.2 58-0.5 106.2-1.1 107-1.5 0.8-0.4 3.8-4.6 6.5-9.4 2.8-4.9 5.2-9.3 5.4-9.8 0.3-0.6 1.3-1.9 2.3-3 1-1.1 1.8-2.3 1.8-2.8 0-0.4 1.3-2.6 2.9-5 1.5-2.3 3.8-6.1 5-8.5 1.5-2.9 3.1-4.6 5.3-5.4 2.3-0.8 19.6-1.3 58.3-1.5l55-0.4c7.4 8.2 9.6 11.2 9.5 11.8 0 0.7 0.4 1.4 0.8 1.5 0.5 0.2 2.2 2.3 3.9 4.8 1.7 2.5 5.4 7.1 8.4 10.4 3 3.2 7.3 7.1 9.7 8.7 2.3 1.6 6.6 3.7 9.5 4.6 3.2 1.1 8.2 1.8 13.2 1.8 6.5 0 8.8-0.4 12.5-2.4 2.5-1.3 5.4-2.9 6.5-3.5 1.1-0.6 4-2.4 6.5-4 2.5-1.6 7.3-5.8 10.8-9.3 3.4-3.4 6.2-6.8 6.2-7.3 0-0.6 0.8-2.2 1.8-3.8 1-1.5 2.5-5 3.2-7.7 0.8-2.8 1.4-8.6 1.4-13 0-7.2-0.4-8.8-3.8-16-2.8-5.9-5.5-9.7-10.4-14.6-4-3.9-9.2-7.9-12.9-9.8-3.5-1.7-8.2-3.8-10.5-4.6-2.4-0.9-7-1.8-10.3-2.1-4.7-0.5-7.3-0.2-12 1.5-3.3 1.2-8.9 4.3-12.5 6.8-3.6 2.6-10.4 8.6-15.3 13.3l-8.7 8.5-139-0.5c-2.6 5-5.4 9.7-7.9 13.5-2.7 4-5.8 10.6-7.4 15.5-1.5 4.7-2.7 8.9-2.7 9.5 0.1 0.5-0.8 2.1-1.8 3.5-1.3 1.8-3.6 2.9-7.8 3.8-4.7 1-25.5 1.2-100 1-81.9-0.3-94.3-0.5-95.8-1.8-1-0.8-3.7-5.3-6-10-2.3-4.7-4.5-9.4-4.9-10.5-0.4-1.1-1.9-4.1-3.4-6.6-1.6-2.5-4.8-7.4-7.3-10.7-3-4.1-5.7-6.6-8-7.5-2.9-1.1-14.1-1.2-65-0.4-33.8 0.6-63.3 0.7-65.5 0.3-3.1-0.6-5.6-2.4-11.5-8.1-4.1-4.1-9.4-9-11.7-10.9-2.4-2-4.6-3.6-5-3.6-0.5 0-1.7-0.8-2.8-1.8-1.1-1-4.7-2.6-8-3.5-3.3-0.9-8.5-1.7-11.5-1.6-3 0-7.3 0.6-9.5 1.3zm-54.5 98.4c-3 1-7.5 2.9-10 4.2-2.5 1.3-6.8 4.6-9.6 7.4-3.2 3.2-6.3 7.8-8.6 12.6-1.9 4.1-4.1 9.7-4.8 12.5-0.8 3.2-1.1 7.9-0.8 13 0.4 6.4 1.2 9.2 3.7 14 1.7 3.3 3.7 6.9 4.4 8 0.6 1 3 3.9 5.2 6.3 2.2 2.4 6.3 5.9 9 7.8 2.7 1.8 7.5 4.3 10.5 5.5 3.2 1.2 9 2.3 14 2.6 6.5 0.4 9.9 0.2 14.5-1.2 3.3-0.9 9.1-3.8 12.9-6.4 3.8-2.5 8.9-6.9 11.4-9.6 2.4-2.8 5.3-6.8 6.3-9 1-2.2 3-5.4 4.4-7l2.5-3 149.5-1c8.9-4.3 11.5-6 11.5-6.5 0-0.6 0.7-1 1.5-1 0.8 0 2.3-0.8 3.3-1.8 1-0.9 2.5-1.8 3.3-2 0.8-0.2 1.5-0.8 1.6-1.3 0.2-0.5 0.8-0.7 1.3-0.4 0.5 0.3 1.6-0.1 2.2-0.8 0.7-0.6 3.8-2.3 6.8-3.7 3-1.4 5.6-2.8 5.7-3.3 0.2-0.4 1.4-0.7 2.8-0.7 1.4 0 2.5-0.5 2.5-1 0-0.6-14.3-1-40.8-1.1-22.4-0.1-46.9-0.4-54.5-0.8-7.7 0.3-13.7-0.2-13.7 0.4 0 0.7-12.9 0.7-38.2 0.2-21.1-0.4-40.3-1.2-42.8-1.8-2.5-0.6-5.5-2-6.8-3.2-1.2-1.2-2.2-2.8-2.2-3.5 0-0.6-3.5-4.8-7.8-9.3-6.2-6.6-9.3-8.9-16.1-12.3-8-3.9-9-4.1-18.5-4.4-7.7-0.1-11.4 0.2-15.6 1.6zm723.7 0.4c-0.1 0.4-1.4 0.9-3 1-1.5 0.2-2.7 0.6-2.7 1 0 0.5-0.9 0.8-2 0.8-1.1 0-2.1 0.4-2.3 0.9-0.1 0.5-0.8 1.1-1.6 1.3-0.8 0.2-2.7 1.5-4.2 3-1.6 1.6-3.3 2.8-3.9 2.8-0.6 0-3.5 2.5-6.5 5.5-3 3-5.9 5.3-6.5 5-0.6-0.3-1.2 0.4-1.5 1.5-0.3 1.1-1.9 3.4-3.6 5l-3.1 3c-182.5 0-211.2 0.3-213.8 1.1-1.9 0.6-3.9 1.6-4.5 2.1-0.7 0.6-0.5 1.2 0.5 1.8 0.8 0.6 4 1.9 7 3.1 3 1.1 7.3 2.8 9.5 3.9 2.2 1 8.5 4 14 6.6l10 4.9c46.5 0.1 86.6 0.7 119 1.4 32.4 0.7 59.6 1.4 60.2 1.7 0.7 0.2 2.5 3 4 6.1 1.6 3.1 3.6 6.5 4.5 7.5 1 1 1.8 2.2 1.8 2.8 0 0.5 2.5 3.5 5.5 6.5 3 3 7.9 6.6 10.7 8 2.9 1.3 7.8 2.9 10.8 3.5 3 0.6 8 1 11 1 3 0 7.5-0.6 10-1.4 2.5-0.7 6.1-2.1 8-3.1 1.9-1 4.8-2.8 6.5-3.9 1.6-1.2 5.8-4.8 9.3-8.1 3.5-3.3 6.8-6.9 7.3-8 0.5-1.1 1.8-3.4 2.8-5 1-1.7 2.1-4.8 2.5-7 0.4-2.2 1-6.3 1.3-9 0.3-2.8 0-7.5-0.7-10.5-0.7-3-2.6-8.4-4.3-12-1.7-3.6-4.9-8.5-7.1-10.9-2.3-2.4-6.1-5.7-8.6-7.3-2.5-1.7-6.5-3.7-9-4.5-2.5-0.9-9.6-1.8-15.8-2.2-6.1-0.3-11.3-0.3-11.5 0.1zm-793.7 134c0 0.4-0.6 0.7-1.2 0.7-0.7 0-3.8 0.8-6.8 1.8-3.1 0.9-7.4 3-9.5 4.5-2.2 1.5-5.8 4.4-8 6.5-2.2 2-5.5 6-7.3 8.7-1.8 2.8-4 7.5-4.9 10.5-1.1 3.9-1.4 8.1-1.1 14 0.4 7.2 1 9.7 4.1 16.3 2.7 5.7 5.4 9.3 10 13.7 3.4 3.3 6.8 6 7.5 6 0.6 0 1.2 0.5 1.2 1 0 0.6 1.9 1.9 4.3 2.9 2.3 1.1 6 2.5 8.2 3.3 2.2 0.7 8.7 1.3 14.5 1.3 10 0 10.8-0.2 17-3.4 4.4-2.3 9.8-6.6 16.8-13.5 5.7-5.5 10.8-10.4 11.5-10.8 0.7-0.3 13.1-1.1 27.7-1.7 14.6-0.6 38.1-1.1 52.3-1.1 16.5 0 25.7 0.4 25.7 1 0 0.6 1 0.8 2.3 0.6 1.2-0.2 3.3-0.7 4.7-1 1.4-0.3 2.8-1.2 3.2-1.8 0.5-0.7 0.8-0.8 0.8-0.3 0 0.6 1.1-0.2 2.5-1.7 1.4-1.5 3.6-5.2 5-8.3 1.4-3 2.5-6.3 2.5-7.2 0-1.6-1.6-1.9-13.2-2.6-7.3-0.5-30.8-0.8-52.3-0.6-21.4 0.1-42.5 0.2-46.7 0.1-6.9-0.2-8.1-0.5-10.3-2.7-1.4-1.3-2.5-3.1-2.5-4 0-0.8-0.4-1.6-0.8-1.7-0.4-0.2-2.2-2.4-4-5-1.8-2.6-3.2-5.1-3.2-5.5 0-0.4-2.1-2.7-4.5-5-2.5-2.4-4.5-4.7-4.5-5.3 0-0.5-0.3-1-0.7-0.9-0.5 0-2.1-1.2-3.8-2.6-1.6-1.4-4.1-3.2-5.5-3.9-1.4-0.7-5.2-1.9-8.5-2.5-3.3-0.7-9.7-1.1-14.2-0.9-4.6 0.2-8.3 0.7-8.3 1.1zm862 0.7c-1.9 0.4-3.3 0.5-3.2 0.2 0.1-0.4-0.1-0.1-0.6 0.5-0.4 0.6-1.3 1.3-2.1 1.5-0.8 0.2-2.3 1-3.4 1.8-1.1 0.9-2.9 2.5-4.1 3.7-1.1 1.2-4 4.2-6.3 6.7-2.4 2.6-5.2 6.5-6.3 8.9-1.1 2.3-2.4 6-2.9 8.2-0.7 2.9-1.9 4.5-4.1 5.8-2.8 1.6-8.2 1.7-74.2 1.7-39.2 0.1-71.9 0.4-72.6 0.8-1 0.6-0.9 1.7 0.4 5.7 0.9 2.8 2.6 7.2 3.8 9.8 1.1 2.6 3 5 4.1 5.4 1.1 0.4 32.4 0.9 69.5 1.1l67.5 0.3c6.2 3.6 10.3 7.3 13 10.5 2.8 3.2 5.9 6.8 7 7.9 1.1 1.1 3.6 3.2 5.5 4.7 1.9 1.4 5.8 3.4 8.5 4.3 2.8 1 7.9 2 11.5 2.2 4.4 0.4 8.7 0 13-1.2 3.6-0.9 9.1-3 12.3-4.6 3.3-1.6 8.7-5.8 12.7-9.9 5-5 8-9 10.5-14.2 1.9-4 3.6-8.4 3.8-9.8 0.2-1.3 0.8-3.4 1.2-4.5 0.5-1.1 0.5-4.9 0.1-8.5-0.4-3.9-1.9-8.8-3.7-12.5q-2.9-6-10.2-12.8c-3.9-3.8-9.4-8-12.2-9.4-2.7-1.4-7.2-3.2-10-3.9-2.7-0.7-9.5-1.3-15-1.3-5.5 0.1-11.5 0.5-13.5 0.9zm-783.5 86.9c-2.7 1-7.2 3.1-10 4.7-2.7 1.6-7 5-9.5 7.5-2.4 2.6-6 7.5-7.8 11-1.8 3.6-3.9 8.9-4.7 11.9-0.8 3.1-1.5 8.2-1.5 11.5 0 4 0.7 7.9 2.2 11.5 1.2 3.1 2.8 6.1 3.5 6.8 0.7 0.7 1.3 1.7 1.3 2.2 0 0.6 3 4.1 6.8 7.9 3.7 3.7 9.2 8.4 12.2 10.3 3 1.9 8 4.5 11 5.8 3.7 1.5 7.3 2.2 11 2.1 3 0 7.5-0.7 10-1.4 2.5-0.8 7-2.7 10-4.2 3-1.5 6.9-3.7 8.5-4.9 1.6-1.1 5.4-4.3 8.3-7.1 2.9-2.7 5.3-5.8 5.2-6.7 0-1 0.5-1.8 1-1.8 0.6 0 4.5-3.5 8.8-7.8 4.5-4.6 8.9-8.2 10.5-8.5 1.5-0.4 3.4-1.5 4.3-2.4 0.8-1 1.3-2.3 1-3-0.3-0.7-0.1-1.3 0.4-1.3 0.6 0 0.8-1.3 0.4-3.2-0.3-1.8-0.6-3.3-0.7-3.4-0.1-0.1-3.8-1.9-8.2-4.1-4.4-2.2-9.7-5.8-11.7-7.9-2.1-2.1-7.2-7.4-11.5-11.8-5.6-5.7-9.5-8.7-13.8-10.7-3.3-1.5-8.2-2.9-11-3.2-2.7-0.4-8.6-0.8-13-1.1-6.1-0.4-9.2-0.1-13 1.3zm699.5-0.2c-2.5 0.9-5.5 2.2-6.7 3-1.3 0.7-2.3 1.1-2.3 0.8 0-0.2-1 0.3-2.2 1.3-1.2 0.9-4.4 3.8-7.1 6.2-2.7 2.5-5.6 6-6.3 7.8-0.8 1.8-1.8 3.8-2.3 4.5-0.6 0.7-2.5 2.7-4.3 4.6-3.3 3.3-3.3 3.3-13.8 3.5-5.8 0.1-10.7 0.4-11 0.8-0.3 0.3-4.9 0.8-10.2 1-5.4 0.2-9.8 0.3-9.8 0.3 0 0-0.3 1.6-0.6 3.5-0.4 2.1 0.1 5.8 1.1 9 0.9 3.1 2.7 6.3 3.9 7.3 1.8 1.6 4.1 1.8 15.9 1.8 7.5 0 14.7 0.3 16 0.8 1.2 0.5 3.2 1.8 4.4 2.8 1.2 1 3.1 2.5 4.2 3.3 1.2 0.9 2.1 1.9 2.1 2.3 0 0.4 1.7 2.6 3.8 4.9 2 2.4 6.4 6.9 9.7 10.1 3.6 3.4 9 7.2 13.5 9.5 7.1 3.5 8 3.7 17.1 3.7 9.1 0 9.9-0.2 17.5-3.9 6-3 9.9-5.9 16-12 5.3-5.3 9-10.1 11-14.1 2.3-4.8 3-7.6 3.3-14.5 0.2-5.7-0.2-10.6-1.3-15-1-3.5-2.6-8.4-3.7-10.7-1-2.4-4.3-6.9-7.2-10-3.8-4.1-7.4-6.7-12.3-9-3.8-1.8-9.4-3.7-12.4-4.3-3-0.5-9.1-1-13.5-0.9-4.6 0-9.9 0.7-12.5 1.6zm-810.5 86.8c-2.2 0.7-4.3 1.1-4.8 0.7-0.4-0.4-0.7-0.1-0.7 0.6 0 0.7-0.9 1.2-2.1 1.2-1.1 0-2.2 0.4-2.2 1-0.1 0.5-0.8 1-1.6 1.2-0.9 0.2-2.3 1.1-3.3 2.1-1 0.9-2.5 1.7-3.3 1.7-0.8 0-1.5 0.4-1.5 0.8 0.1 0.4-1.2 1.4-2.7 2.2-1.5 0.9-3.9 2.7-5.3 4.2-1.4 1.4-3.2 3.6-4 4.8-0.8 1.3-2 2.8-2.6 3.4-0.6 0.6-1.5 2-2.1 3.1-0.6 1.1-1.9 5.9-2.8 10.5-1.5 7.2-1.5 9.7-0.6 16 0.7 4.2 2.2 9.8 3.4 12.5 1.3 3 5.2 8.1 9.7 12.7 4.1 4.3 8.3 7.8 9.3 7.8 0.9 0 1.7 0.5 1.7 1 0 0.6 3.2 2.6 7 4.5 4.5 2.3 9.8 4 14.8 4.7l7.7 1.2c10.9-5.2 16.9-9.3 20.5-12.3 3.6-3 8.2-7.3 10.2-9.5 2.1-2.3 5.7-6.4 8-9.2 2.7-3.2 5.9-5.8 8.3-6.8 2.2-0.8 10.1-2.1 17.5-2.7 10-0.8 22.4-0.8 48 0 19 0.6 40.9 1.1 48.8 1.1 7.8 0 16.3-0.5 19-1.1 2.6-0.6 5.5-1.9 6.4-2.8 1-0.8 1.6-1.9 1.3-2.3-0.3-0.4 0-0.8 0.5-0.8 0.6 0 1-1.9 1-4.2 0.1-2.9-0.5-4.8-1.7-5.8-1-0.9-3.1-2.2-4.8-2.9-1.6-0.7-4.6-1.8-6.5-2.4-2.1-0.6-28.2-1.2-67.5-1.6-53.6-0.5-64.4-0.9-66.7-2.1-1.5-0.8-2.8-1.9-2.7-2.5 0-0.5-1-2.1-2.2-3.5-1.2-1.3-2.8-3.6-3.7-5-0.9-1.3-3.9-4.6-6.7-7.1-2.7-2.6-6.8-5.9-9-7.4-2.2-1.5-6.2-3.9-9-5.2-3.6-1.9-7-2.7-12-2.9-4.3-0.2-8.5 0.2-11 1.1zm931.5 1.2c-2.5 0.9-6.4 2.9-8.7 4.4-2.4 1.6-4.5 2.9-4.7 2.9-0.2 0-3.4 2.8-7 6.3-3.7 3.4-6.6 6.9-6.6 7.7 0 0.9-0.9 2.1-2 2.8-1.1 0.7-1.8 1.6-1.5 2 0.2 0.4-0.4 1.4-1.5 2.2-1 0.9-1.7 1.9-1.4 2.3 0.2 0.4-0.3 0.7-1.1 0.7-0.8 0-1.7 0.9-2 2-0.4 1.8-1 2-5.7 1.3-2.9-0.4-36.8-0.6-75.3-0.4-38.5 0.1-73.1 0.7-77 1.3-3.8 0.5-7.6 1.5-8.3 2.1-0.9 0.9-1.2 3.6-1 9.4 0.3 8.1 0.3 8.2 3.3 9 1.7 0.5 37.2 0.8 79 0.8 70.8 0 76.3 0.2 80 1.8 2.2 1 7.5 5.3 11.8 9.5 4.2 4.3 7.7 8.1 7.7 8.5 0 0.4 1.9 2.6 4.3 5 2.4 2.3 6.3 5.6 8.8 7.4 2.4 1.7 6 3.8 7.9 4.6 1.9 0.8 5.8 1.8 8.5 2.2 2.8 0.4 7.9 0.2 11.5-0.4 3.6-0.7 7.6-2 9-3 1.4-1 4.3-2.7 6.5-3.8 2.2-1.1 6.9-4.9 10.5-8.4 3.6-3.5 7.5-8.5 8.8-11.1 1.2-2.6 2.7-5 3.2-5.3 0.6-0.2 1-1.4 1-2.5 0-1.1 0.9-3.5 2-5.5 1.1-1.9 2.3-6.3 2.6-9.7 0.5-5.9 0.3-6.8-3.3-13.8-2.1-4.1-5.7-9.9-8-13-2.3-3-6.3-7.1-9-9.1-2.6-2-7.2-4.8-10-6.3-2.9-1.4-7.9-3.2-11-4.1-3.2-0.8-8.3-1.5-11.3-1.4-3 0-7.5 0.7-10 1.6zm-842.5 69.7c-2.7 1.2-7.7 4.1-11 6.4-3.3 2.2-7.6 5.5-9.5 7.4-2 1.8-5 5.5-6.8 8.1-1.8 2.6-3.2 5.2-3.2 5.7 0 0.6-0.8 2.7-1.9 4.8-1 2-2.1 6.2-2.5 9.2-0.5 3.5-0.3 7.6 0.6 11.3 0.7 3.2 1.5 5.7 1.8 5.7 0.3 0 1.2 1.8 2 4 0.8 2.3 1.8 4.1 2.3 4.1 0.4-0.1 0.7 0.6 0.7 1.4 0 0.9 0.5 1.5 1 1.5 0.6 0 1 0.5 1 1 0 0.6 1.2 2.4 2.8 4.2 1.5 1.7 4.7 5 7.2 7.4 3.2 3.1 6.5 4.9 11.5 6.6 5.7 1.9 9.1 2.3 18.5 2.3 10.9 0 11.9-0.2 18-3.2 4.4-2.1 8.9-5.5 13.8-10.5 4-4 8.1-8.6 9.1-10.3 1-1.6 3.2-4.2 4.7-5.7 2.6-2.5 4-2.9 13.4-3.8 6.6-0.7 21.7-0.7 40.8-0.3l30.2 0.8c0-3.5-0.4-4.5-1-4.5-0.5 0-0.9-0.3-0.9-0.7 0.1-0.4 0.1-1.2 0.1-1.8-0.1-0.5-0.9-2-1.9-3.2-1-1.2-2.4-2.2-3-2.2-0.8-0.1-1.1-0.9-0.8-2.1q0.5-2-1-2c-0.8 0-1.5-0.8-1.5-1.7 0-1-0.4-2.4-1-3.3-0.8-1.2-6-1.5-33.7-2l-32.8-0.5c-27.2-27.3-31.2-30.7-36.5-33.3-5.9-2.8-7.4-3.1-16-3.1-7.8 0-10.4 0.4-14.5 2.3zm748.5-1.1c-1.9 0.6-6.6 3.2-10.5 5.8-3.8 2.6-9 6.9-11.5 9.6-2.5 2.7-5.4 6.1-6.5 7.5-1.1 1.3-2.7 3.6-3.5 5-0.8 1.4-2.4 3.9-3.5 5.7l-2 3.1c-28.7-0.2-47-0.5-59.2-0.8-12.3-0.4-22.3-0.3-22.3 0.1 0 0.4-3.1 0.7-7 0.7-3.8 0-7 0.4-7.1 0.8 0 0.4-0.2 1.4-0.3 2.2-0.1 0.9-1.2 2.9-2.4 4.5-1.3 1.7-2.8 4.6-3.4 6.5-0.6 2-1.8 4.3-2.7 5.3-0.9 1-1.4 1.9-1.1 2.2 0.3 0.2 21 0 46-0.4 25-0.5 47.8-0.5 50.5-0.1 2.8 0.3 6.1 1.3 7.5 2 1.4 0.7 4 2.9 5.8 4.7 1.7 1.8 3.2 3.6 3.2 3.8 0 0.3 3.6 4 8 8.3 4.3 4.2 8.6 8.3 9.5 9 0.8 0.7 3.6 2.2 6.3 3.4 2.6 1.1 5.6 2.5 6.7 3.1 1.1 0.5 6.3 1 11.5 1 6.1 0 11.2-0.6 14.3-1.7 2.6-0.8 6.8-2.9 9.5-4.6 2.6-1.7 6.3-4.6 8.2-6.4 1.9-1.8 5.3-5.3 7.6-7.7 2.2-2.4 5-6.2 6.1-8.4 1.2-2.2 2.6-5.5 3.2-7.5 0.7-1.9 1.1-5.3 1.1-7.5 0-2.2-1.1-7.6-2.5-12-1.3-4.4-4.2-10.7-6.4-14-2.1-3.3-6.5-8.6-9.7-11.8-3.6-3.7-8.4-7.1-12.4-9-5.9-2.9-7.5-3.2-17-3.4-5.8-0.1-12.1 0.4-14 1zm-670.1 87c-3.6 1.2-9.9 4.5-13.9 7.2-4 2.8-9 7.1-11 9.5-2.1 2.5-5.7 8.1-8 12.5l-4.2 8c0.8 16.8 1.3 18.9 4.3 24.5 1.8 3.6 3.6 6.8 3.9 7 0.3 0.3 2.1 2.6 4 5.2 1.9 2.5 6 6.1 9 8 3 1.8 8.2 4.6 11.5 6.1 3.3 1.5 8.7 3.3 12 3.8 3.4 0.6 8.8 0.8 12.5 0.4 4.1-0.4 9.1-1.9 13.5-4 4.9-2.3 8.7-5.1 12.6-9.1 3-3.2 7.2-8.3 9.1-11.4 2-3 4.6-6.4 5.8-7.5 2.1-1.9 4-2 48.8-2.5 29.7-0.3 46.7-0.8 46.8-1.5 0.2-0.5-6-5.5-13.7-11-7.7-5.5-15.5-10.6-17.2-11.4-2.5-1.2-9.5-1.6-32.2-2.1-22.9-0.4-29.6-0.8-32-2-1.6-0.8-3.9-3-5.2-5-1.2-1.9-3.7-5.5-5.4-8-1.7-2.4-5.4-6.3-8.2-8.5-2.8-2.2-6-4.5-7.1-5.1-1.1-0.6-5-2.1-8.6-3.3-4.2-1.3-9-2.1-13.5-2.1-4.5 0.1-9.4 0.9-13.6 2.3zm589.6-0.2c-3.3 1.2-7.8 3.4-10 4.9-2.2 1.6-6 4.6-8.5 6.8-2.5 2.2-6.5 7.4-9 11.6-2.5 4.2-5.1 7.8-5.7 8.1-0.7 0.3-21 0.6-45 0.6l-43.8 0.1c-4.3 6.1-6.2 7.8-7 7.8-0.8 0-1.5 0.4-1.5 0.8 0.1 0.4-2.1 1.9-4.7 3.2-2.6 1.4-5.5 3.3-6.5 4.3-1 0.9-2.5 1.7-3.3 1.7-0.8 0-1.5 0.4-1.5 0.8 0 0.4-1.6 1.6-3.5 2.7-2.4 1.4-3.2 2.3-2.5 3 0.7 0.7 22.3 1.1 59.6 1.3l58.4 0.2c5.2 6.6 7.7 10.3 9 12.5 1.3 2.2 4.2 5.9 6.5 8.2 2.2 2.3 6.9 5.7 10.5 7.7 3.6 1.9 9.7 4.3 13.5 5.2 4.1 0.9 9.5 1.4 13 1.2 4.3-0.3 8.4-1.5 14.5-4.4 4.7-2.2 11.2-5.9 14.5-8.4 3.3-2.4 7.5-5.9 9.3-7.9 1.9-2 4.5-5.7 5.8-8.3 1.3-2.6 2.8-7.6 3.2-11 0.5-4.2 0.4-8.6-0.5-13.3-0.8-3.8-2.6-9.2-4-12-1.5-2.7-6.8-9-11.8-14-7.5-7.6-10.1-9.5-16-11.9-5.6-2.3-8.9-2.9-17-3.2-8.3-0.4-11-0.1-16 1.7zm-364 103c-15.9 0.3-29.8 1-30.9 1.5-1.1 0.5-6 9.4-11.7 20.9-5.4 11-10.6 20.8-11.6 21.6-1.6 1.5-7.5 1.6-62.1 1l-60.4-0.6c-4.5-5.4-7.2-9.7-9-13-1.7-3.3-5.7-8.5-8.7-11.5-3.2-3.3-8.3-7-12.1-8.8-3.6-1.8-9-3.9-12-4.7-3-0.8-8.2-1.4-11.5-1.4-3.3 0-8 0.7-10.5 1.5-2.5 0.9-6.1 2.4-8 3.4-1.9 1-6.2 4-9.6 6.7-3.3 2.6-7.2 6.2-8.7 7.8-1.4 1.7-4 6-5.9 9.5-3.2 6.4-3.3 6.8-3.3 19v12.5c6.6 12 10.2 17.4 12.3 19.7 2 2.2 5.5 5.3 7.7 6.7 2.2 1.4 5.8 3.4 8 4.4 2.2 1 6.7 2.5 10 3.3 3.3 0.8 8.9 1.4 12.5 1.4 4.1 0 8.5-0.7 12-2 3-1.1 7.3-3.1 9.5-4.4 2.2-1.3 6.9-5.2 10.5-8.7 3.6-3.5 8-8.2 9.8-10.4l3.3-4c98.7-0.2 129.5-0.3 132.2-0.4 2.9 0 5.2-0.6 6-1.6 0.6-0.8 2.4-2.8 3.7-4.3 1.4-1.4 3.7-4.7 5.2-7.2 1.4-2.4 5.1-9.4 8.3-15.5 3.2-6 7-11.9 8.4-13.1 2.2-1.9 4.3-2.3 13.1-2.8 5.8-0.3 49.4-0.6 97-0.7 59.5 0 87.4 0.3 89.3 1.1 1.5 0.5 3.5 2.3 4.5 3.8 1 1.5 2.9 5.7 4.2 9.2 1.2 3.6 4.2 10.6 6.6 15.5 2.4 5 5.4 10.4 6.8 12l2.4 3c25.4 0.9 56.4 0.9 85.4 0.6l52.7-0.6c5.5 5.5 7.1 7.4 7.1 7.8 0 0.4 2.8 3.6 6.3 7.1 3.4 3.5 8.7 7.8 11.7 9.5 3 1.7 8 3.8 11 4.6 3 0.8 8.7 1.5 12.5 1.5 4.2 0.1 9.6-0.7 13.5-1.9 3.6-1.1 8.8-3.4 11.5-5.1 2.8-1.7 7.9-6.1 11.4-9.8 3.7-3.9 7.6-9.4 9.5-13.1 2.9-6.1 3.1-7.2 3-17-0.1-9-0.5-11.6-2.8-17.6-1.5-3.8-4-8.8-5.6-11-1.5-2.2-4.7-5.8-7.1-8.1-2.4-2.2-8-5.8-12.4-8-7.8-3.8-8.2-3.9-19-3.9-10.8 0-11.3 0.1-18.5 3.7-4.1 2.1-9.8 5.7-12.6 8-2.9 2.4-7.2 6.8-9.6 9.8-2.5 3.1-5.6 7.6-7.1 10-1.4 2.5-3 5.1-3.4 5.8-0.4 0.7-2.6 1.7-4.8 2.2-2.3 0.6-28 1-60 1.1-30.8 0-56.8-0.3-57.8-0.7-1-0.5-3.7-4.7-6-9.4-2.2-4.6-5.4-10.7-7-13.5-1.7-2.7-5.3-8.5-8.1-12.7-3.4-5.3-6.1-8.2-8.1-9-2.2-0.9-23.7-1.2-83.5-1.2-44.3-0.1-93.5 0.2-109.5 0.5z"/>
		<path id="Path 1 copy-8" class="s1" d="m499.2 306.6c-5.2 0.5-13.8 1.6-19 2.5-5.2 0.9-12.7 2.2-16.5 3-3.8 0.8-12.4 3-19 5-6.6 2-12.8 4.1-13.8 4.6-0.9 0.5-1.9 0.7-2.2 0.4-0.3-0.3-1.1 0-1.8 0.5-0.6 0.6-6.8 3.8-13.7 7.1-6.9 3.4-12.7 6-13 5.9-0.3-0.1-0.7 0.3-1 0.8-0.3 0.6-1.1 1.2-1.9 1.4-0.8 0.1-2.1 0.9-3 1.6-0.9 0.7-4.6 3.3-8.4 5.8-3.7 2.4-7.2 4.4-7.7 4.4-0.6 0-1 0.3-1 0.7 0 0.5-1.7 1.9-3.7 3.3-2 1.4-4.8 3.6-6.3 4.9-1.4 1.3-4.3 3.8-6.5 5.6-2.2 1.8-7.8 7.1-12.5 11.7-4.7 4.7-10.3 10.6-12.5 13.3-2.2 2.7-5.1 6.5-6.4 8.5-1.3 1.9-2.6 3.7-3 4-0.3 0.3-2.7 3.7-5.2 7.5-2.5 3.8-6.4 10.2-8.6 14-2.2 3.8-5.3 9.7-6.8 13-1.5 3.3-4.3 9.8-6.2 14.5-1.8 4.7-4.5 12.5-5.8 17.5-1.3 4.9-2.9 12.4-3.5 16.5-0.7 4.1-1.6 10-2.2 13-0.5 3-1.2 14.7-1.5 26-0.4 12.6-0.1 25.1 0.6 32.5 0.7 6.6 2.3 17.6 3.8 24.5 1.4 6.9 3.8 16.3 5.3 21 1.5 4.7 4.7 13 7 18.5 2.3 5.5 6.4 14.3 9.2 19.5 2.8 5.2 7.4 12.8 10.2 16.9 2.8 4 5.8 8.3 6.6 9.5 0.8 1.1 3.2 3.9 5.3 6.1 2.1 2.2 3.7 4.2 3.7 4.5 0 0.3 4.9 5.6 11 11.7 6 6.2 11.4 11.3 12 11.3 0.5 0 2.5 1.5 4.2 3.3 1.8 1.8 5.5 4.9 8.3 7 2.7 2.1 5.6 3.7 6.2 3.7 0.7 0 1.3 0.3 1.3 0.7-0.1 0.5 3 2.8 6.7 5.3 3.7 2.5 10.6 6.6 15.3 9 4.7 2.4 14.3 6.8 21.5 9.7 7.2 3 16.2 6.5 20 7.7 3.8 1.3 10.4 3.3 14.5 4.5 4.1 1.1 14 3.2 22 4.5 8 1.3 19.4 3 25.5 3.6 6.6 0.7 18.8 1 30.5 0.7 13.9-0.3 24.9-1.2 38-3.1 10.2-1.5 20.3-3.2 22.5-3.7 2.2-0.5 8.4-2.4 13.8-4.2 5.4-1.8 9.7-3.4 9.7-3.7 0-0.3 0.8-0.6 1.7-0.7 1-0.1 7.3-2.4 14-5.2 6.8-2.8 12.3-5.5 12.3-6.1 0-0.6 0.4-0.8 1-0.5 0.6 0.3 1.7-0.2 2.5-1 0.8-0.8 1.5-1.3 1.5-1 0 0.3 1.5-0.2 3.2-1.1 1.8-0.9 7.5-4.3 12.5-7.5 5.1-3.3 9.3-6.3 9.3-6.9 0-0.6 0.8-1.2 1.7-1.5 1-0.3 4.2-2.8 7-5.5 2.9-2.8 5.6-5 6-5 0.5 0.1 7.4-6.4 15.5-14.2 8.1-7.9 14.7-15 14.8-15.8 0-0.8-2.1-3.4-4.8-5.8-2.6-2.3-4.9-4.2-5.2-4.2-0.3 0-3.7-3-7.5-6.6-3.8-3.6-8.6-7.8-10.5-9.2-1.9-1.5-6.4-5.5-10-9-3.6-3.4-6.6-6.3-6.8-6.2-0.1 0-3-2.5-6.5-5.5-3.4-3-6.6-5.4-7.2-5.5-0.6 0-2-1.4-3.3-3-1.2-1.7-2.5-3-3-3-0.4 0.1-2.5-1.6-4.7-3.7-2.3-2.1-6.2-5.6-8.9-7.8-2.6-2.2-6.6-5.1-8.9-6.4-2.5-1.5-4.9-2.2-6-1.8-0.9 0.4-1.9 0.8-2.1 0.9-0.2 0.2-4.8 4.4-10.2 9.5-5.5 5.1-10.2 9-10.7 8.7-0.4-0.2-0.7 0-0.7 0.6 0 0.6-3.9 3.6-8.8 6.7-4.8 3.1-12.3 7.4-16.7 9.5-4.4 2-11.4 4.6-15.5 5.6-4.1 1.1-12.2 2.5-18 3.1-7.4 0.8-13.6 0.9-21 0.2-5.8-0.6-13.7-1.7-17.5-2.5-3.8-0.8-9.7-2.5-13-3.7-3.3-1.2-8.3-3.6-11-5.2-2.8-1.6-7.7-4.8-11-7.2-3.3-2.3-8.7-7.1-12-10.6-3.4-3.5-8.8-10.9-12.2-16.4-3.4-5.5-7.5-13.5-9.2-17.8-1.7-4.2-3.9-11-4.9-15-1.4-5.8-1.7-11.3-1.6-28.2 0.1-11.6 0.7-23.5 1.3-26.5 0.6-3 1.3-6.4 1.6-7.5 0.2-1.1 1.7-5.6 3.3-10 1.6-4.4 3.8-10 4.8-12.5 1-2.5 3.5-6.8 5.6-9.5 2.1-2.8 3.8-5.5 3.8-6 0-0.6 4.6-5.6 10.3-11.2 5.6-5.6 10.6-10.2 11.2-10.2 0.5-0.1 1.9-0.9 3-1.9 1.1-1 5.8-3.4 10.5-5.4 4.7-2 11-4.4 14-5.2 3-0.9 10-2.3 15.5-3.1 5.5-0.8 14.3-1.5 19.5-1.5 5.2 0 13.6 0.7 18.5 1.5 4.9 0.8 11.7 2.4 15 3.5 3.3 1.2 9.6 4 14 6.3 4.3 2.3 8.7 5 9.7 5.9 1 1 2.2 1.8 2.8 1.8 0.6 0 2.5 1.4 4.2 3 1.8 1.7 3.5 3 3.8 3 0.3-0.1 5.8 5.1 12.2 11.5l11.8 11.5c6-3.5 9-5.4 10.5-6.5 1.5-1.1 5.1-4 7.9-6.4 2.8-2.4 6.7-6.1 8.6-8.2 1.9-2.1 3.9-3.8 4.5-3.9 0.6 0 5.7-4.5 11.5-10 5.8-5.6 10.7-10.1 11-10.1 0.3 0.1 4.7-4 9.7-8.9 5.1-5 9.6-9 10-9 0.5 0 2.8-1.8 5.3-4 2.5-2.3 4.7-4 5-4 0.3 0 2-1.3 3.7-3 1.8-1.6 4.2-3.5 5.3-4 1.1-0.6 2-1.6 2-2.3 0.1-0.6-4.8-5.9-10.7-11.7-5.9-5.8-12.6-11.9-14.7-13.5-2.2-1.7-5.6-4.5-7.5-6.2-2-1.8-3.8-3.3-4.1-3.3-0.3 0-2.1-1.3-4-3-1.9-1.7-6.5-5.1-10.3-7.5-3.7-2.5-7.1-4.5-7.7-4.5-0.6 0-1-0.5-1-1 0-0.6-3-2.5-6.8-4.2-3.7-1.8-6.9-3.5-7.2-3.8-0.3-0.3-1.8-1.1-3.5-1.9-1.7-0.7-3.8-1.7-4.8-2.2-0.9-0.5-6.3-2.7-12-4.8-5.6-2.2-14.3-5.1-19.2-6.5-4.9-1.4-13.5-3.5-19-4.6-5.5-1.1-14.9-2.8-21-3.6-6.8-1-21.1-1.7-37.5-1.9-14.6-0.2-30.8 0-36 0.5z"/>
	</g>
</svg>